<svg width="128" height="128" viewBox="0 0 128 128" fill="none" xmlns="http://www.w3.org/2000/svg">
<g clip-path="url(#clip0_1845_5109)">
<path d="M64 128C99.3462 128 128 99.3462 128 64C128 28.6538 99.3462 0 64 0C28.6538 0 0 28.6538 0 64C0 99.3462 28.6538 128 64 128Z" fill="#ADFC4F"/>
<path d="M41.1138 100.16C39.773 100.16 38.3788 99.9426 36.9456 99.4124C31.7427 97.5422 29.6197 92.7173 27.9194 88.842C27.6668 88.2635 27.4141 87.69 27.1518 87.1357C27.1421 87.1115 27.1275 87.0874 27.1178 87.0633C25.6944 83.8291 24.1252 80.2237 22.182 75.7169C22.0217 75.3409 21.8663 74.989 21.7157 74.6372C20.7392 72.4007 19.7239 70.0918 19.515 67.2239C19.136 62.3267 21.7108 57.8729 26.4037 55.3183C27.4044 54.7543 28.3663 54.3205 29.2991 53.906L29.7849 53.6891C29.7849 53.6891 29.8237 53.6747 29.8383 53.665C32.2188 52.6383 36.2412 50.8694 40.5017 48.9944C44.8885 47.0663 49.8583 44.878 54.0265 43.0657C57.8547 41.4075 62.1298 40.5014 66.3854 40.4484C66.4 40.4484 66.4146 40.4484 66.434 40.4484C68.3772 40.4484 69.9609 41.9956 69.9901 43.9285C70.0144 45.8758 68.4452 47.476 66.4826 47.5001C63.1694 47.5435 59.8465 48.2424 56.8831 49.5294C52.7295 51.3321 47.7694 53.5156 43.3923 55.4436C38.9472 57.4006 35.1093 59.0876 32.7046 60.1239L32.2285 60.336C31.4026 60.7071 30.6253 61.0542 29.9063 61.4591C29.8869 61.4687 29.8675 61.4832 29.8432 61.4928C28.5412 62.1966 26.3891 63.8113 26.6126 66.6937C26.734 68.3807 27.3996 69.899 28.2449 71.8223C28.4052 72.1934 28.5704 72.5645 28.7355 72.9502C30.6642 77.4087 32.2188 80.9949 33.6324 84.205C33.9142 84.8076 34.1863 85.4245 34.4486 86.0222C35.7894 89.0685 37.0525 91.9461 39.4087 92.7944C41.381 93.5223 43.4068 92.9005 46.4674 91.5026C49.494 90.153 53.2055 88.5528 57.1357 86.8561C62.7176 84.446 68.489 81.9541 73.2984 79.7657C74.1437 79.3416 74.8919 78.9078 75.5186 78.4643C76.8011 77.5678 77.8213 76.5315 78.7249 75.206C78.7346 75.1915 78.7443 75.1819 78.7492 75.1674C79.201 74.5215 79.6382 73.8033 80.0949 73.0514C80.3378 72.6513 80.5806 72.2512 80.8284 71.8608C82.6356 68.8627 84.6031 65.5802 86.5463 62.3363C87.6491 60.4999 88.7422 58.6779 89.7915 56.9282C89.4272 56.9764 89.0725 57.0246 88.7373 57.0632C87.6491 57.2126 86.5463 57.3572 85.4436 57.5066C84.3894 57.6464 83.3303 57.791 82.2907 57.9308C82.0672 57.9597 81.8437 57.9886 81.6203 58.0224C81.1053 59.319 80.6098 60.6252 80.124 61.8977L80.1094 61.9314C80.1094 61.9314 80.0997 61.9555 80.0949 61.97C79.9734 62.2737 79.8568 62.5822 79.7402 62.8858C78.9386 64.9585 78.1079 67.1034 76.6991 69.1134C74.3381 72.6127 70.3204 74.5697 66.2008 74.2178C62.295 73.8853 59.0012 71.509 57.3835 67.8698C56.169 65.0645 56.1884 62.0134 57.4175 59.2611C58.6757 56.4462 61.095 54.2386 64.0681 53.2071C66.4777 52.3202 68.9748 52.1467 71.1803 51.9924H71.2192C71.2192 51.9924 71.2532 51.9924 71.2678 51.9876C73.0604 51.8864 74.7996 51.7322 76.597 51.5345C80.8916 41.6823 86.5706 36.0139 93.9063 34.2304C96.8017 33.4592 99.5805 33.4351 102.272 33.4062C102.685 33.4062 103.098 33.3966 103.516 33.3918C105.493 33.3628 107.096 34.9149 107.13 36.8622C107.164 38.8095 105.595 40.4146 103.632 40.4484C103.2 40.4532 102.767 40.458 102.34 40.4628C99.9788 40.4869 97.7539 40.5062 95.7232 41.0509C95.694 41.0605 95.66 41.0653 95.6309 41.075C91.4335 42.0872 87.9843 45.1094 85.0209 50.4548C85.9585 50.3295 86.8961 50.2042 87.824 50.0789C87.8531 50.0789 87.8823 50.0692 87.9115 50.0692C88.3001 50.0259 88.7179 49.968 89.1503 49.9102C90.9089 49.6692 92.9055 49.3944 94.6399 49.727C94.6593 49.727 94.6787 49.7366 94.6982 49.7366C96.039 50.0162 97.1417 50.773 97.8024 51.8719C98.2931 52.6865 98.7643 54.0506 98.2057 55.9256C97.817 57.2126 97.0883 58.5478 96.3596 59.7962C96.3499 59.8106 96.345 59.8202 96.3353 59.8347C95.1548 61.8013 93.9111 63.8691 92.6626 65.9562C90.7097 69.2146 88.7325 72.5115 86.9156 75.5193C86.9058 75.5385 86.8913 75.5578 86.8767 75.5771C86.6435 75.9482 86.4152 76.3242 86.1868 76.7002C85.6913 77.5148 85.1812 78.3535 84.5983 79.1873C83.2186 81.2021 81.5911 82.8554 79.6188 84.2388C78.686 84.8895 77.6124 85.5209 76.427 86.109C76.393 86.1283 76.3541 86.1427 76.3201 86.162C71.4378 88.384 65.6081 90.9001 59.9728 93.3343C56.0621 95.0213 52.3699 96.6167 49.4114 97.9374C46.9484 99.0605 44.1647 100.174 41.1284 100.174L41.1138 100.16ZM71.6807 59.0105H71.6661C69.7618 59.1454 67.9643 59.2659 66.5117 59.8106C66.4826 59.8203 66.4534 59.8299 66.4243 59.8444C65.2924 60.23 64.3791 61.0542 63.9127 62.1002C63.6163 62.7701 63.3686 63.8209 63.8981 65.0452C64.6122 66.6551 65.8705 67.0938 66.7984 67.1757C68.008 67.2769 69.6938 66.8045 70.7917 65.1609C70.8062 65.1368 70.8257 65.1127 70.8403 65.0886C71.7633 63.7775 72.4094 62.1098 73.0944 60.3456C73.2159 60.0323 73.3373 59.719 73.4588 59.4057V59.3913C73.5268 59.2226 73.5948 59.0539 73.6579 58.8803C73.007 58.9285 72.3463 58.9767 71.6807 59.0105Z" fill="black"/>
</g>
<defs>
<clipPath id="clip0_1845_5109">
<rect width="128" height="128" fill="white"/>
</clipPath>
</defs>
</svg>
