<svg width="163" height="32" viewBox="0 0 163 32" fill="none" xmlns="http://www.w3.org/2000/svg">
<path d="M16.0343 32C24.8898 32 32.0686 24.8366 32.0686 16C32.0686 7.16344 24.8898 0 16.0343 0C7.17879 0 0 7.16344 0 16C0 24.8366 7.17879 32 16.0343 32Z" fill="#ADFC4F"/>
<path d="M10.5058 25.5072C10.171 25.5072 9.82433 25.4523 9.46657 25.3182C8.17011 24.8438 7.64114 23.621 7.21608 22.6387C7.15219 22.4918 7.09001 22.3466 7.02527 22.2056C7.02272 22.1996 7.01931 22.1936 7.01676 22.1867C6.6624 21.3669 6.27142 20.4526 5.78674 19.3113C5.7467 19.216 5.70837 19.1266 5.67004 19.0381C5.42642 18.4718 5.17428 17.8865 5.12147 17.1595C5.02692 15.9186 5.66834 14.7903 6.83787 14.1432C7.08746 13.9997 7.32767 13.8906 7.55936 13.7849L7.68117 13.729C7.68543 13.7273 7.69054 13.7247 7.6948 13.723C8.28766 13.4635 9.2911 13.0149 10.3525 12.5397C11.4453 12.0507 12.6839 11.4964 13.7239 11.0375C14.6788 10.6173 15.7436 10.3879 16.8041 10.3733C16.8084 10.3733 16.8118 10.3733 16.816 10.3733C17.2998 10.3733 17.6951 10.766 17.7019 11.2558C17.7079 11.7491 17.3169 12.1547 16.8271 12.1616C16.0008 12.1727 15.1729 12.3506 14.4343 12.6755C13.3994 13.1326 12.1626 13.6861 11.0714 14.1742C9.96403 14.67 9.00659 15.098 8.40692 15.3601L8.28766 15.4142C8.08237 15.5079 7.88816 15.5964 7.70928 15.6986C7.70417 15.7012 7.69906 15.7047 7.69395 15.7072C7.36941 15.886 6.83276 16.295 6.88813 17.0255C6.9188 17.4526 7.0849 17.8376 7.29445 18.3248C7.33448 18.4185 7.37537 18.5139 7.41626 18.6101C7.89668 19.7402 8.28511 20.6485 8.63691 21.4623C8.70675 21.6153 8.77405 21.7708 8.83964 21.922C9.17355 22.6937 9.48872 23.4225 10.0765 23.6382C10.568 23.8221 11.0731 23.6648 11.8363 23.3108C12.591 22.9687 13.5161 22.5631 14.4957 22.1326C15.8867 21.5216 17.3254 20.89 18.5239 20.3357C18.7352 20.2283 18.9208 20.1183 19.0776 20.0066C19.397 19.7788 19.6509 19.5167 19.8757 19.1807C19.8783 19.1773 19.88 19.1747 19.8825 19.1713C19.9958 19.0071 20.104 18.8258 20.2182 18.6342C20.2786 18.5328 20.3391 18.4322 20.4004 18.3317C20.8511 17.572 21.3417 16.7402 21.8255 15.9186C22.0998 15.4537 22.3724 14.9914 22.6339 14.548C22.5428 14.5609 22.455 14.572 22.3715 14.5815C22.0998 14.6193 21.8255 14.6563 21.5512 14.6932C21.288 14.7293 21.0248 14.7645 20.765 14.8006C20.7088 14.8084 20.6534 14.8161 20.5981 14.823C20.4703 15.1512 20.3459 15.4821 20.225 15.8052L20.2216 15.8129C20.2216 15.8129 20.219 15.819 20.2182 15.8224C20.1883 15.8997 20.1585 15.9771 20.1296 16.0544C19.9294 16.5795 19.7233 17.1226 19.3715 17.6322C18.7837 18.519 17.7811 19.014 16.7547 18.9255C15.7811 18.8413 14.9599 18.2397 14.5579 17.3168C14.2555 16.6053 14.2597 15.8336 14.5664 15.1349C14.8798 14.4208 15.4829 13.8631 16.224 13.601C16.8245 13.3758 17.4472 13.332 17.9975 13.2933H18.0069C18.0069 13.2933 18.0145 13.2925 18.0188 13.2916C18.466 13.2658 18.8987 13.2272 19.3468 13.1773C20.4175 10.6809 21.8332 9.24408 23.6603 8.7912C24.381 8.59613 25.0744 8.58925 25.7456 8.58324C25.8486 8.58238 25.9517 8.58152 26.0556 8.5798C26.548 8.57293 26.9483 8.96565 26.956 9.45891C26.9637 9.95218 26.5735 10.3595 26.0846 10.3672C25.9773 10.369 25.8699 10.3698 25.7626 10.3707C25.1749 10.3758 24.6186 10.3819 24.1135 10.5202C24.1058 10.5219 24.0982 10.5245 24.0905 10.5262C23.0445 10.7823 22.185 11.5489 21.4456 12.9032C21.6799 12.8714 21.9133 12.8396 22.1441 12.8078C22.1518 12.8069 22.1586 12.8061 22.1663 12.8052C22.2625 12.794 22.3673 12.7794 22.4755 12.7648C22.9142 12.7038 23.4108 12.6342 23.8435 12.7184C23.8486 12.7193 23.8528 12.7201 23.858 12.721C24.1919 12.7923 24.467 12.984 24.6314 13.2624C24.7541 13.4686 24.8708 13.815 24.7319 14.2893C24.6348 14.6159 24.4534 14.9536 24.2719 15.2698C24.2702 15.2733 24.2685 15.2767 24.266 15.2793C23.9713 15.7777 23.662 16.3019 23.3503 16.8313C22.8639 17.6562 22.3707 18.4924 21.9184 19.2555C21.915 19.2606 21.9124 19.2658 21.909 19.2701C21.8502 19.3646 21.794 19.46 21.7369 19.5554C21.6134 19.7616 21.4865 19.9748 21.3417 20.1853C20.9984 20.6958 20.5921 21.1151 20.1006 21.4649C19.8681 21.6299 19.6006 21.7897 19.305 21.9392C19.2965 21.9435 19.2871 21.9478 19.2778 21.9521C18.0605 22.515 16.6082 23.1535 15.2035 23.7696C14.2291 24.1976 13.3083 24.6015 12.5706 24.9358C11.9564 25.2211 11.263 25.503 10.5066 25.503L10.5058 25.5072ZM18.1236 15.0799H18.1193C17.6448 15.1134 17.1968 15.1452 16.8339 15.2827C16.8262 15.2853 16.8194 15.2879 16.8118 15.2905C16.5298 15.3884 16.3015 15.5972 16.1848 15.8619C16.1107 16.0312 16.0494 16.2985 16.1814 16.6087C16.3594 17.0169 16.6738 17.1286 16.9046 17.1484C17.2062 17.1741 17.6261 17.0538 17.8995 16.6379C17.9038 16.6319 17.908 16.6259 17.9123 16.6199C18.1431 16.2873 18.3041 15.8645 18.4745 15.4176C18.5043 15.3386 18.535 15.2587 18.5656 15.1796L18.5673 15.1762C18.5835 15.1332 18.5997 15.0902 18.6159 15.0473C18.4532 15.0601 18.2897 15.0713 18.1236 15.0808V15.0799Z" fill="black"/>
<path d="M41.9116 15.0856C39.5597 14.6883 39.0889 14.1423 39.0889 13.323C39.0889 12.5037 39.7578 11.9578 41.0201 11.9578C42.4069 11.9578 43.0994 12.603 43.4465 14.1423L45.9966 13.5709C45.5013 11.3363 44.1899 9.97101 41.0201 9.97101C37.8503 9.97101 36.4398 11.3363 36.4398 13.447C36.4398 15.3089 37.554 16.4016 40.6984 17.0223C43.0258 17.4443 43.6192 17.8909 43.6192 18.7356C43.5947 19.6543 42.9013 20.2002 41.49 20.2002C39.6333 20.2002 38.89 19.2069 38.5191 17.7423L36.019 18.239C36.4398 20.5229 37.7021 22.2609 41.4409 22.2609C44.7334 22.2609 46.2438 20.8455 46.2438 18.6609C46.2438 16.8737 45.1542 15.6817 41.9116 15.0856Z" fill="black"/>
<path d="M67.1689 9.97101C65.0112 9.97101 63.6566 11.0215 63.1804 13.6487H63.1555C62.9548 11.4724 61.8257 9.97101 59.2665 9.97101C57.2847 9.97101 55.7791 10.9967 55.2523 13.4981H55.2274V10.2713H52.5181V22.029H55.2274V15.0748C55.2274 13.3989 56.2809 12.398 58.0122 12.398C59.8439 12.398 60.4711 13.6487 60.4711 15.0748V22.029H63.1804V15.0748C63.1804 13.3989 64.2091 12.398 65.9404 12.398C67.7712 12.398 68.4241 13.6487 68.4241 15.0748V22.029H71.1085V14.3742C71.1085 11.8223 70.055 9.97101 67.1698 9.97101H67.1689Z" fill="black"/>
<path d="M79.9595 9.97101C77.6458 9.97101 76.2878 11.2259 75.7338 13.6102H75.684V10.2723H72.9678V25.5072H75.684V18.7051H75.7338C76.2619 21.1144 77.5702 22.395 79.9337 22.395C82.9268 22.395 84.5868 20.0355 84.5868 16.1199C84.5868 12.2043 83.0025 9.97101 79.9586 9.97101H79.9595ZM78.8526 19.96C76.8907 19.96 75.684 18.5043 75.684 16.2452V16.0444C75.684 13.7098 76.8915 12.4052 78.8526 12.4052C80.94 12.4052 81.8964 13.7604 81.8964 16.1199C81.8964 18.4794 80.8901 19.96 78.8526 19.96Z" fill="black"/>
<path d="M88.5371 6.72461H85.7485V22.029H88.5371V6.72461Z" fill="black"/>
<path d="M97.5058 14.5326C97.0806 15.8915 96.4799 17.5774 95.9298 19.2384H95.8545C95.3043 17.6273 94.6532 15.8407 94.1784 14.4818L92.6519 10.2037H89.6992L94.453 21.8305C93.7026 23.6171 93.0267 23.9192 91.6757 23.9192C91.1752 23.9192 90.6994 23.8435 90.1741 23.7428L89.7985 26.2842C90.3486 26.3599 90.8492 26.4348 91.5995 26.4348C94.3016 26.4348 95.7527 25.1258 96.9539 22.1567L101.783 10.2029H98.8808L97.505 14.5317L97.5058 14.5326Z" fill="black"/>
<path d="M107.848 19.801C105.851 19.801 104.528 18.4849 104.528 16.1032C104.528 13.595 105.876 12.4037 107.797 12.4037C109.452 12.4037 110.324 13.3071 110.731 14.7039L113.353 14.2649C112.791 11.5376 111.161 9.97101 107.822 9.97101C104.253 9.97101 101.783 12.2559 101.783 16.1295C101.783 20.0031 104.204 22.2609 107.896 22.2609C111.162 22.2609 112.856 20.5363 113.402 17.753L110.784 17.3369C110.381 18.7736 109.642 19.8027 107.848 19.8027V19.801Z" fill="black"/>
<path d="M136.481 13.624H136.456C135.928 11.217 134.595 9.95068 132.23 9.97529C129.262 9.95068 127.577 12.2839 127.577 16.155C127.577 20.0261 129.161 22.2608 132.23 22.2608C134.519 22.2608 135.902 20.9954 136.43 18.6376H136.48V21.9383H139.196V6.72461H136.48V13.624H136.481ZM136.481 16.2305C136.481 18.5391 135.273 19.8292 133.337 19.8292C131.225 19.8292 130.268 18.489 130.268 16.1558C130.268 13.8226 131.275 12.3586 133.337 12.3586C135.274 12.3586 136.481 13.798 136.481 16.0319V16.2305Z" fill="black"/>
<path d="M146.366 9.97101C142.711 9.97101 140.358 12.3099 140.358 16.2661C140.358 20.2223 142.761 22.2609 146.366 22.2609C149.237 22.2609 150.822 20.9404 151.517 18.9691L149.142 18.3029C148.744 19.2465 147.999 19.922 146.391 19.922C144.463 19.922 143.312 18.9512 143.061 16.9876H151.695C151.745 16.3656 151.745 15.8926 151.745 15.4204C151.745 12.2103 149.942 9.97101 146.365 9.97101H146.366ZM143.087 14.9967C143.387 13.1062 144.514 12.235 146.29 12.235C148.067 12.235 149.094 13.1802 149.244 14.9967H143.087Z" fill="black"/>
<path d="M158.334 15.0856C155.982 14.6883 155.511 14.1423 155.511 13.323C155.511 12.5037 156.18 11.9578 157.442 11.9578C158.829 11.9578 159.521 12.603 159.869 14.1423L162.419 13.5709C161.923 11.3363 160.611 9.97101 157.442 9.97101C154.273 9.97101 152.862 11.3363 152.862 13.447C152.862 15.3089 153.976 16.4016 157.12 17.0223C159.448 17.4443 160.042 17.8909 160.042 18.7356C160.018 19.6543 159.324 20.2002 157.913 20.2002C156.056 20.2002 155.313 19.2069 154.942 17.7423L152.442 18.239C152.863 20.5229 154.125 22.2609 157.864 22.2609C161.156 22.2609 162.667 20.8455 162.667 18.6609C162.667 16.8737 161.577 15.6817 158.334 15.0856H158.334Z" fill="black"/>
<path d="M120.386 9.97101C116.744 9.97101 114.332 12.2303 114.332 16.079C114.332 19.9277 116.593 22.2609 120.386 22.2609C124.18 22.2609 126.415 19.9022 126.415 16.079C126.415 12.2558 124.004 9.97101 120.386 9.97101ZM120.361 19.8029C118.225 19.8029 117.045 18.3128 117.045 16.0535C117.045 13.7942 118.276 12.4035 120.385 12.4035C122.495 12.4035 123.726 13.8189 123.726 16.0535C123.726 18.2882 122.52 19.8029 120.361 19.8029Z" fill="black"/>
<path d="M50.6592 10.2029H47.8706V22.029H50.6592V10.2029Z" fill="black"/>
<path d="M50.6591 6.72461H47.6382V8.81157H50.6591V6.72461Z" fill="black"/>
</svg>
